<svg xmlns="http://www.w3.org/2000/svg" width="64" height="64"><path d="M 31.453 56 L 13.333 56 C 11.919 56 10.562 55.438 9.562 54.438 C 8.562 53.438 8 52.081 8 50.667 L 8 18.667 C 8 17.252 8.562 15.896 9.562 14.895 C 10.562 13.895 11.919 13.333 13.333 13.333 L 45.333 13.333 C 46.748 13.333 48.104 13.895 49.105 14.895 C 50.105 15.896 50.667 17.252 50.667 18.667 L 50.667 29.333" fill="transparent" stroke-width="2" stroke="#da3642" stroke-linecap="round" stroke-linejoin="round" stroke-dasharray=""></path><path d="M 48 58.667 C 50.829 58.667 53.542 57.543 55.542 55.542 C 57.543 53.542 58.667 50.829 58.667 48 C 58.667 45.171 57.543 42.458 55.542 40.457 C 53.542 38.457 50.829 37.333 48 37.333 C 45.171 37.333 42.458 38.457 40.457 40.457 C 38.457 42.458 37.333 45.171 37.333 48 C 37.333 50.829 38.457 53.542 40.457 55.542 C 42.458 57.543 45.171 58.667 48 58.667 Z" fill="transparent" stroke-width="2" stroke="rgb(68, 126, 223)" stroke-linecap="round" stroke-linejoin="round" stroke-dasharray=""></path><path d="M 40 8 L 40 18.667" fill="transparent" stroke-width="2" stroke="#da3642" stroke-linecap="round" stroke-linejoin="round" stroke-dasharray=""></path><path d="M 18.667 8 L 18.667 18.667" fill="transparent" stroke-width="2" stroke="#da3642" stroke-linecap="round" stroke-linejoin="round" stroke-dasharray=""></path><path d="M 8 29.333 L 50.667 29.333" fill="transparent" stroke-width="2" stroke="#da3642" stroke-linecap="round" stroke-linejoin="round" stroke-dasharray=""></path><path d="M 48 43.979 L 48 47.989 L 50.667 50.656" fill="transparent" stroke-width="2" stroke="#447edf" stroke-linecap="round" stroke-linejoin="round" stroke-dasharray=""></path></svg>