<svg xmlns="http://www.w3.org/2000/svg" width="64" height="64"><path d="M 10.667 18.667 L 18.667 18.667 C 19.374 18.667 20.052 18.386 20.552 17.886 C 21.052 17.386 21.333 16.707 21.333 16 L 21.333 13.333 C 21.333 11.919 21.895 10.562 22.895 9.562 C 23.896 8.562 25.252 8 26.667 8 C 28.081 8 29.438 8.562 30.438 9.562 C 31.438 10.562 32 11.919 32 13.333 L 32 16 C 32 16.707 32.281 17.386 32.781 17.886 C 33.281 18.386 33.959 18.667 34.667 18.667 L 42.667 18.667 C 43.374 18.667 44.052 18.948 44.552 19.448 C 45.052 19.948 45.333 20.626 45.333 21.333 L 45.333 29.333 C 45.333 30.041 45.614 30.719 46.114 31.219 C 46.614 31.719 47.293 32 48 32 L 50.667 32 C 52.081 32 53.438 32.562 54.438 33.562 C 55.438 34.562 56 35.919 56 37.333 C 56 38.748 55.438 40.104 54.438 41.105 C 53.438 42.105 52.081 42.667 50.667 42.667 L 48 42.667 C 47.293 42.667 46.614 42.948 46.114 43.448 C 45.614 43.948 45.333 44.626 45.333 45.333 L 45.333 53.333 C 45.333 54.041 45.052 54.719 44.552 55.219 C 44.052 55.719 43.374 56 42.667 56 L 34.667 56 C 33.959 56 33.281 55.719 32.781 55.219 C 32.281 54.719 32 54.041 32 53.333 L 32 50.667 C 32 49.252 31.438 47.896 30.438 46.895 C 29.438 45.895 28.081 45.333 26.667 45.333 C 25.252 45.333 23.896 45.895 22.895 46.895 C 21.895 47.896 21.333 49.252 21.333 50.667 L 21.333 53.333 C 21.333 54.041 21.052 54.719 20.552 55.219 C 20.052 55.719 19.374 56 18.667 56 L 10.667 56 C 9.959 56 9.281 55.719 8.781 55.219 C 8.281 54.719 8 54.041 8 53.333 L 8 45.333 C 8 44.626 8.281 43.948 8.781 43.448 C 9.281 42.948 9.959 42.667 10.667 42.667 L 13.333 42.667 C 14.748 42.667 16.104 42.105 17.105 41.105 C 18.105 40.104 18.667 38.748 18.667 37.333 C 18.667 35.919 18.105 34.562 17.105 33.562 C 16.104 32.562 14.748 32 13.333 32 L 10.667 32 C 9.959 32 9.281 31.719 8.781 31.219 C 8.281 30.719 8 30.041 8 29.333 L 8 21.333 C 8 20.626 8.281 19.948 8.781 19.448 C 9.281 18.948 9.959 18.667 10.667 18.667 Z" fill="transparent" stroke-width="2" stroke="#447edf" stroke-linecap="round" stroke-linejoin="round" stroke-dasharray=""></path></svg>