<svg xmlns="http://www.w3.org/2000/svg" width="64" height="64"><path d="M 10.667 29.333 C 12.081 29.333 13.438 29.895 14.438 30.895 C 15.438 31.895 16 33.252 16 34.667 L 16 37.333 L 48 37.333 L 48 34.667 C 48 33.252 48.562 31.895 49.562 30.895 C 50.562 29.895 51.919 29.333 53.333 29.333 C 54.748 29.333 56.104 29.895 57.105 30.895 C 58.105 31.895 58.667 33.252 58.667 34.667 L 58.667 48 C 58.667 48.707 58.386 49.385 57.886 49.886 C 57.385 50.386 56.707 50.667 56 50.667 L 8 50.667 C 7.293 50.667 6.614 50.386 6.114 49.886 C 5.614 49.385 5.333 48.707 5.333 48 L 5.333 34.667 C 5.333 33.252 5.895 31.895 6.895 30.895 C 7.896 29.895 9.252 29.333 10.667 29.333 Z" fill="transparent" stroke-width="2" stroke="#da3642" stroke-linecap="round" stroke-linejoin="round" stroke-dasharray=""></path><path d="M 10.667 29.333 L 10.667 21.333 C 10.667 19.212 11.51 17.177 13.01 15.676 C 14.51 14.176 16.545 13.333 18.667 13.333 L 45.333 13.333 C 47.455 13.333 49.49 14.176 50.99 15.676 C 52.491 17.177 53.333 19.212 53.333 21.333 L 53.333 29.333" fill="transparent" stroke-width="2" stroke="#447edf" stroke-linecap="round" stroke-linejoin="round" stroke-dasharray=""></path><path d="M 32 13.333 L 32 37.333" fill="transparent" stroke-width="2" stroke="#447edf" stroke-linecap="round" stroke-linejoin="round" stroke-dasharray=""></path></svg>